<svg xmlns="http://www.w3.org/2000/svg" xmlns:xlink="http://www.w3.org/1999/xlink"><symbol id="icon-burger" viewBox="0 0 49.945 24.007">
    <path fill="#FFF" d="M1.137 0C.51 0 0 .428 0 1.01v1.981c0 .558.494 1.01 1.139 1.01H48.81c.628 0 1.138-.428 1.138-1.01V1.01c0-.558-.494-1.01-1.138-1.01H1.137zm0 10.003c-.627 0-1.137.428-1.137 1.01v1.98c0 .557.494 1.01 1.139 1.01H48.81c.628 0 1.138-.428 1.138-1.01v-1.98c0-.558-.494-1.01-1.138-1.01H1.137zm0 10.002C.51 20.005 0 20.434 0 21.016v1.981c0 .557.494 1.01 1.139 1.01H48.81c.628 0 1.138-.428 1.138-1.01v-1.981c0-.558-.494-1.011-1.138-1.011H1.137z"/>
    <path fill="#FFF" d="M1.137 0C.51 0 0 .428 0 1.01v1.981c0 .558.494 1.01 1.139 1.01H48.81c.628 0 1.138-.428 1.138-1.01V1.01c0-.558-.494-1.01-1.138-1.01H1.137zm0 10.003c-.627 0-1.137.428-1.137 1.01v1.98c0 .557.494 1.01 1.139 1.01H48.81c.628 0 1.138-.428 1.138-1.01v-1.98c0-.558-.494-1.01-1.138-1.01H1.137zm0 10.002C.51 20.005 0 20.434 0 21.016v1.981c0 .557.494 1.01 1.139 1.01H48.81c.628 0 1.138-.428 1.138-1.01v-1.981c0-.558-.494-1.011-1.138-1.011H1.137z"/>
</symbol><symbol id="icon-contrast" viewBox="-35.422 -7.96 31.92 31.92">
    <path d="M-19.462-3.96c6.595 0 11.96 5.365 11.96 11.96s-5.365 11.96-11.96 11.96-11.96-5.365-11.96-11.96 5.365-11.96 11.96-11.96m0-4c-8.814 0-15.96 7.145-15.96 15.96 0 8.813 7.146 15.96 15.96 15.96S-3.502 16.813-3.502 8c0-8.815-7.146-15.96-15.96-15.96z"/>
    <path d="M-19.462 16.331a8.519 8.519 0 0 0 8.52-8.52 8.518 8.518 0 0 0-8.52-8.519"/>
</symbol><symbol id="icon-copy" viewBox="0 0 48 48">
    <path fill="none" d="M0 0h48v48H0V0z"/>
    <path d="M34 30h4V14c0-2.21-1.79-4-4-4H18v4h16v16zm-20 4V2h-4v8H2v4h8v20c0 2.21 1.79 4 4 4h20v8h4v-8h8v-4H14z"/>
</symbol><symbol id="icon-cross" viewBox="0 0 23.867 23.867">
    <path fill="#FFF" d="M15.087 11.933l8.56-8.559a.75.75 0 0 0 0-1.061L21.554.22a.747.747 0 0 0-1.06 0l-8.561 8.56L3.373.22a.771.771 0 0 0-1.061 0L.22 2.313a.75.75 0 0 0 0 1.061l8.56 8.559-8.56 8.559a.751.751 0 0 0 0 1.062l2.093 2.094a.744.744 0 0 0 1.06 0l8.561-8.56 8.56 8.56a.746.746 0 0 0 1.06 0l2.093-2.094a.751.751 0 0 0 0-1.062l-8.56-8.559z"/>
</symbol><symbol id="icon-facebook" viewBox="0 0 8.673 18.944">
  <path fill="#d22856" d="M6.275,3.357c0.799,0,1.599,0,2.398,0c0-1.119,0-2.238,0-3.357c-0.959,0-1.92,0-2.878,0C2.656,0.181,1.54,2.387,1.948,6.115 H0v3.517h1.958c0,3.104,0,6.208,0,9.312c1.279,0,2.558,0,3.837,0c0-3.104,0-6.208,0-9.312h2.857V6.115H5.786 C5.765,5.07,5.75,3.709,6.275,3.357z"/>
</symbol><symbol id="icon-fill" viewBox="0 0 48 48">
    <path fill="none" d="M0 0h48v48H0V0z"/>
    <path d="M33.12 17.88L15.24 0l-2.83 2.83 4.76 4.76L6.88 17.88a3 3 0 0 0 0 4.24l11 11c.58.59 1.35.88 2.12.88s1.54-.29 2.12-.88l11-11a3 3 0 0 0 0-4.24zM10.41 20L20 10.42 29.59 20H10.41zM38 23s-4 4.33-4 7c0 2.21 1.79 4 4 4s4-1.79 4-4c0-2.67-4-7-4-7zM0 40h48v3H0z"/>
</symbol><symbol id="icon-footer-logo"><path d="M71.874 18.661c0-.708.58-1.288 1.256-1.288h7.18c5.087 0 8.436 2.704 8.436 7.146v.063c0 4.86-4.057 7.373-8.854 7.373h-5.475v6.825c0 .708-.58 1.287-1.289 1.287-.676 0-1.256-.58-1.256-1.287l.002-20.119zm8.114 10.98c3.734 0 6.182-1.996 6.182-4.959v-.062c0-3.221-2.414-4.894-6.053-4.894h-5.699v9.917h5.57v-.002zM93.603 18.5c0-.708.579-1.288 1.255-1.288.709 0 1.288.58 1.288 1.288v20.283a1.29 1.29 0 01-1.288 1.287c-.676 0-1.255-.579-1.255-1.287V18.5zm9.141.032c0-.676.58-1.256 1.256-1.256h.354c.58 0 .935.29 1.288.74l13.684 17.45V18.468c0-.676.547-1.256 1.256-1.256.676 0 1.225.58 1.225 1.256v20.349c0 .677-.48 1.19-1.158 1.19h-.129c-.548 0-.936-.321-1.318-.772l-13.976-17.867v17.449c0 .677-.547 1.257-1.257 1.257-.676 0-1.223-.58-1.223-1.257V18.532h-.002zm25.429-.032c0-.708.58-1.288 1.257-1.288.708 0 1.286.58 1.286 1.288v12.331l12.848-13.16c.29-.257.579-.451.998-.451.676 0 1.225.612 1.225 1.256 0 .354-.162.644-.42.901l-7.984 7.92 8.564 10.561c.225.291.354.547.354.936 0 .676-.577 1.288-1.285 1.288-.482 0-.807-.259-1.03-.58l-8.401-10.464-4.863 4.861v4.895a1.29 1.29 0 01-1.286 1.288c-.677 0-1.257-.58-1.257-1.288V18.5h-.006z"/><path fill="#D22856" d="M60.462 28.016L55.287 6.651C54.926 4.303 52.694 0 46.688 0a1.5 1.5 0 100 3c4.856 0 5.575 3.729 5.639 4.143l4.767 19.701h-2.073c-.742-5.927-5.802-10.531-11.927-10.531s-11.186 4.604-11.927 10.531h-1.82c-.741-5.927-5.802-10.531-11.927-10.531S6.235 20.917 5.493 26.844H3.42L8.187 7.143C8.25 6.729 8.97 3 13.826 3a1.5 1.5 0 100-3C7.82 0 5.588 4.303 5.227 6.651L.052 28.016c-.266 1.109.531 1.826 1.426 1.826.012 0 .023.004.036.004h3.982c.741 5.926 5.802 10.53 11.927 10.53s11.185-4.604 11.927-10.53h1.814c.742 5.926 5.802 10.53 11.927 10.53s11.186-4.604 11.927-10.53H59c.012 0 .023-.004.036-.004.895 0 1.692-.717 1.426-1.826zm-34.147 1.828c-.715 4.272-4.421 7.531-8.896 7.531s-8.18-3.259-8.896-7.531c-.082-.488-.135-.988-.135-1.5s.053-1.011.135-1.5c.715-4.271 4.421-7.531 8.896-7.531s8.18 3.26 8.896 7.531c.082.489.135.988.135 1.5s-.053 1.011-.135 1.5zm25.675 0c-.716 4.272-4.421 7.531-8.896 7.531-4.475 0-8.181-3.259-8.896-7.531-.082-.488-.135-.988-.135-1.5s.053-1.011.135-1.5c.716-4.271 4.421-7.531 8.896-7.531 4.475 0 8.181 3.26 8.896 7.531.082.489.135.988.135 1.5s-.053 1.011-.135 1.5z"/></symbol><symbol id="icon-heart-svg" viewBox="521.939 473.064 12.545 11.99"><path fill="#d22856" d="M528.174 485.055a.737.737 0 01-.552-.249c-3.798-4.324-4.644-5.298-4.858-5.572h-.004a3.866 3.866 0 01-.821-2.373 3.803 3.803 0 013.799-3.799c.934 0 1.804.32 2.484.898a3.847 3.847 0 012.463-.898 3.803 3.803 0 013.799 3.799c0 .909-.318 1.754-.896 2.381l-4.86 5.561a.735.735 0 01-.554.252zm-4.245-6.706c.208.255 2.471 2.839 4.243 4.858l4.323-4.944c.34-.369.52-.86.52-1.399a2.333 2.333 0 00-2.33-2.331c-.729 0-1.421.344-1.9.943a.76.76 0 01-.585.275.727.727 0 01-.575-.294 2.333 2.333 0 00-1.887-.925 2.333 2.333 0 00-2.33 2.331c0 .678.275 1.171.507 1.467l.014.019z"/></symbol><symbol id="icon-htmlacademy" viewBox="0 0 26.943 34.09">
    <path d="M13.62.017L13.472 0 0 1.412v24.661l13.472 8.017 13.43-7.99.042-.026V1.412L13.62.017zm11.399 12.11L13.495 5.334l-.001-.104-.087.05-.088-.056v.109L1.925 12.118V3.147l11.547-1.212 11.547 1.212v8.98zm-11.614-5.34L24.923 13.5l-4.479 2.64-7.093-4.221-.013 1.415 5.904 3.513-.86.507-5.031-2.992-.013 1.415 3.827 2.275-.782.523-3.032-1.787-.013 1.413 1.852 1.091-1.8 1.081-11.356-6.751 11.371-6.835zm-11.48 8.34l11.411 6.791.015 1.044-7.941-4.728-.015 1.416 7.979 4.796.017 1.076-7.972-4.741-.013 1.415 8.021 4.821.045.026 8.143-4.872v-1.268l-.011-.148v-3.761l3.415-2.036v10.02L13.472 31.85 1.925 24.979v-9.852z"/>
</symbol><symbol id="icon-mail"><path fill="#FFF" d="M14.914 1.814C16.111.816 15.816 0 14.257 0H3.731c-1.56 0-1.854.816-.657 1.814l3.742 3.118c1.197.998 3.158.998 4.355 0l3.743-3.118z"/><path fill="#FFF" d="M11.913 7.044A209.809 209.809 0 019.695 8.88l-.02.013a1.048 1.048 0 01-.235.136c-.033.015-.066.034-.1.048a1.18 1.18 0 01-.335.059l-.01.001h-.002l-.01-.001a1.216 1.216 0 01-.335-.059c-.034-.014-.068-.033-.1-.048a1.07 1.07 0 01-.235-.136l-.02-.013c-.022-.012-1.02-.838-2.218-1.836L2.178 3.796C.979 2.798 0 3.257 0 4.816v6.315a2.842 2.842 0 002.835 2.835h12.318a2.842 2.842 0 002.835-2.835V4.816c0-1.559-.979-2.018-2.178-1.02l-3.897 3.248z"/></symbol><symbol id="icon-map-marker"><circle fill="#FFF" cx="17.991" cy="17.991" r="17.991"/><circle fill="#D22856" cx="17.991" cy="17.991" r="7.866"/></symbol><symbol id="icon-quotes"><path d="M34.967 7.063L30.713 0C28.272 1.495 0 12.207 0 39.617c0 7.231.336 24.172 18.9 24.172 11.187 0 13.94-10.279 13.94-13.584 0-21.977-21.382-14.177-21.382-14.177 0-18.071 19.805-26.844 23.509-28.965zm43.705 0L74.418 0c-2.44 1.495-30.713 12.207-30.713 39.617 0 7.231.337 24.172 18.9 24.172 11.187 0 13.939-10.279 13.939-13.584 0-21.977-21.381-14.177-21.381-14.177.002-18.071 19.806-26.844 23.509-28.965z"/></symbol><symbol id="icon-timer"><path d="M264.568 102.055l5.355-5.355c7.717-7.717 9.124-18.938 3.126-24.935-5.997-5.997-17.217-4.59-24.934 3.127l-5.386 5.385C221.768 63.292 196.11 51.875 168 48.297v-9.583h7.658c10.914 0 19.843-8.711 19.843-19.357S186.573 0 175.659 0h-53.317C111.429 0 102.5 8.711 102.5 19.357s8.929 19.357 19.842 19.357H130v9.583C56.681 57.629 0 120.244 0 196.097c0 82.291 66.709 149 149 149 82.29 0 149-66.709 149-149 0-35.663-12.535-68.394-33.432-94.042zM149 306.264c-60.844 0-110.167-49.323-110.167-110.167S88.156 85.93 149 85.93c60.843 0 110.167 49.323 110.167 110.167S209.843 306.264 149 306.264z"/></symbol><symbol id="icon-twitter"><path fill="#d22856" fill-rule="evenodd" clip-rule="evenodd" d="M11.283.153c1.736-.485 3.074.263 3.685 1.151.694-.226 1.372-.47 2.072-.691-.004.841-.538 1.478-.883 1.727.704.166 1.343-.48 1.343-.48-.175.976-1.035 1.746-1.611 1.977-.239 6.592-3.272 10.956-10.382 10.823h-.46c-.422 0-4.29-.45-5.047-1.843 2.341.192 4.011-.412 4.835-1.15-.989-.293-2.761-.464-3.07-2.881.362.105.583.223 1.228.117C1.757 8.067.385 7.366.461 5.218c.294.32 1.1.523 1.381.461C1.117 5.444-.188 2.398.921.843 2.794 2.654 4.769 4.364 8.29 4.528 8.506 2.288 9.461.787 11.283.153z"/></symbol><symbol id="icon-youtube"><path fill="#d22856" d="M1.775 13.78C.799 14.257 0 13.758 0 12.671V1.29C0 .202.799-.295 1.775.181l12.133 5.932c.975.478.975 1.258 0 1.736L1.775 13.78z"/></symbol></svg>